# xmcd
#
# Track frame offsets: 
#        150
#        30264
#        54642
#        84626
#        110050
#        138435
#        165405
#        202207
#        231985
#        253415
#
# Disc length: 3594 seconds
#
# Revision: 0
# Processed by: cddbd v1.5.2PL0 Copyright (c) Steve Scherf et al.
# Submitted via: ExactAudioCopy v1.0b3
#
DISCID=8e0e080a
DTITLE=Yukari Nishimura - Dearly Beloved
DYEAR=2013
DGENRE=Jazz
TTITLE0=Dearly Beloved
TTITLE1=Do Nothin' Till You Hear From Me
TTITLE2=I Will Wait For You 
TTITLE3=My One And Only Love
TTITLE4=Flower In The Rain
TTITLE5=Remember
TTITLE6=Letters From The Sky
TTITLE7=It Ain't Necessarily
TTITLE8=La Vie En Rose
TTITLE9=琵琶湖
EXTD=
EXTT0=
EXTT1=
EXTT2=
EXTT3=
EXTT4=
EXTT5=
EXTT6=
EXTT7=
EXTT8=
EXTT9=
PLAYORDER=
